<svg xmlns="http://www.w3.org/2000/svg" width="23" height="23" viewBox="0 0 23 23">
  <defs>
    <style>
      .cls-1 {
        fill: #f2ac04;
        fill-rule: evenodd;
      }
    </style>
  </defs>
  <path id="button_right.svg" class="cls-1" d="M525.5,560A11.5,11.5,0,1,0,537,571.5,11.5,11.5,0,0,0,525.5,560Zm6.008,12.795-2.878,2.879a1.519,1.519,0,0,1-2.148-2.148l0.366-.365h-5.879a1.745,1.745,0,1,1,0-3.489h5.62l-0.107-.107a1.519,1.519,0,0,1,2.148-2.148l2.879,2.878A2.108,2.108,0,0,1,531.508,572.793Z" transform="translate(-514 -560)"/>
</svg>
